# vtk DataFile Version 2.0
mfree iwf
ASCII

DATASET UNSTRUCTURED_GRID
POINTS 66 float
-4.266667e-04 8.102478e-04 0.000000e+00
-1.349067e-05 8.102478e-04 0.000000e+00
-1.349059e-05 3.050000e-04 0.000000e+00
-4.266667e-04 8.102478e-04 0.000000e+00
-1.349059e-05 3.050000e-04 0.000000e+00
-1.944463e-05 3.000919e-04 0.000000e+00
-4.266667e-04 8.102478e-04 0.000000e+00
-1.944463e-05 3.000919e-04 0.000000e+00
-4.266667e-04 3.792478e-04 0.000000e+00
-1.849059e-05 3.050000e-04 0.000000e+00
-1.376016e-05 3.066196e-04 0.000000e+00
-1.363046e-05 3.061744e-04 0.000000e+00
-1.849059e-05 3.050000e-04 0.000000e+00
-1.363046e-05 3.061744e-04 0.000000e+00
-1.354256e-05 3.057191e-04 0.000000e+00
-1.849059e-05 3.050000e-04 0.000000e+00
-1.354256e-05 3.057191e-04 0.000000e+00
-1.349722e-05 3.052576e-04 0.000000e+00
-1.849059e-05 3.050000e-04 0.000000e+00
-1.349722e-05 3.052576e-04 0.000000e+00
-1.349484e-05 3.047938e-04 0.000000e+00
-1.849059e-05 3.050000e-04 0.000000e+00
-1.349484e-05 3.047938e-04 0.000000e+00
-1.353542e-05 3.043319e-04 0.000000e+00
-1.849059e-05 3.050000e-04 0.000000e+00
-1.353542e-05 3.043319e-04 0.000000e+00
-1.361863e-05 3.038757e-04 0.000000e+00
-1.849059e-05 3.050000e-04 0.000000e+00
-1.361863e-05 3.038757e-04 0.000000e+00
-1.374375e-05 3.034292e-04 0.000000e+00
-1.849059e-05 3.050000e-04 0.000000e+00
-1.374375e-05 3.034292e-04 0.000000e+00
-1.390969e-05 3.029962e-04 0.000000e+00
-1.849059e-05 3.050000e-04 0.000000e+00
-1.390969e-05 3.029962e-04 0.000000e+00
-1.411504e-05 3.025804e-04 0.000000e+00
-1.849059e-05 3.050000e-04 0.000000e+00
-1.411504e-05 3.025804e-04 0.000000e+00
-1.435803e-05 3.021854e-04 0.000000e+00
-1.849059e-05 3.050000e-04 0.000000e+00
-1.435803e-05 3.021854e-04 0.000000e+00
-1.463656e-05 3.018146e-04 0.000000e+00
-1.849059e-05 3.050000e-04 0.000000e+00
-1.463656e-05 3.018146e-04 0.000000e+00
-1.494824e-05 3.014713e-04 0.000000e+00
-1.849059e-05 3.050000e-04 0.000000e+00
-1.494824e-05 3.014713e-04 0.000000e+00
-1.529039e-05 3.011583e-04 0.000000e+00
-1.849059e-05 3.050000e-04 0.000000e+00
-1.529039e-05 3.011583e-04 0.000000e+00
-1.566007e-05 3.008783e-04 0.000000e+00
-1.849059e-05 3.050000e-04 0.000000e+00
-1.566007e-05 3.008783e-04 0.000000e+00
-1.605410e-05 3.006338e-04 0.000000e+00
-1.849059e-05 3.050000e-04 0.000000e+00
-1.605410e-05 3.006338e-04 0.000000e+00
-1.646908e-05 3.004269e-04 0.000000e+00
-1.849059e-05 3.050000e-04 0.000000e+00
-1.646908e-05 3.004269e-04 0.000000e+00
-1.690145e-05 3.002593e-04 0.000000e+00
-1.849059e-05 3.050000e-04 0.000000e+00
-1.690145e-05 3.002593e-04 0.000000e+00
-1.734749e-05 3.001324e-04 0.000000e+00
-1.849059e-05 3.050000e-04 0.000000e+00
-1.734749e-05 3.001324e-04 0.000000e+00
-1.780336e-05 3.000475e-04 0.000000e+00

CELLS 22 88
3 0 1 2
3 3 4 5
3 6 7 8
3 9 10 11
3 12 13 14
3 15 16 17
3 18 19 20
3 21 22 23
3 24 25 26
3 27 28 29
3 30 31 32
3 33 34 35
3 36 37 38
3 39 40 41
3 42 43 44
3 45 46 47
3 48 49 50
3 51 52 53
3 54 55 56
3 57 58 59
3 60 61 62
3 63 64 65

CELL_TYPES 22
5
5
5
5
5
5
5
5
5
5
5
5
5
5
5
5
5
5
5
5
5
5
