# vtk DataFile Version 2.0
mfree iwf
ASCII

DATASET POLYDATA
POINTS 23 float
-0.001137 0.002258 0.000000
0.000863 0.002258 0.000000
0.000722 0.000646 0.000000
0.000672 0.000600 0.000000
0.000676 0.000600 0.000000
0.000680 0.000601 0.000000
0.000684 0.000601 0.000000
0.000688 0.000603 0.000000
0.000692 0.000604 0.000000
0.000696 0.000606 0.000000
0.000699 0.000608 0.000000
0.000703 0.000610 0.000000
0.000706 0.000613 0.000000
0.000709 0.000616 0.000000
0.000712 0.000619 0.000000
0.000714 0.000622 0.000000
0.000716 0.000626 0.000000
0.000718 0.000630 0.000000
0.000720 0.000634 0.000000
0.000721 0.000638 0.000000
0.000722 0.000642 0.000000
0.000668 0.000600 0.000000
-0.001137 0.000758 0.000000

POLYGONS 1 24
23 0 1 2 3 4 5 6 7 8 9 10 11 12 13 14 15 16 17 18 19 20 21 22
