# vtk DataFile Version 2.0
mfree iwf
ASCII

DATASET POLYDATA
POINTS 23 float
-0.002003 0.002258 0.000000
-0.000003 0.002258 0.000000
-0.000144 0.000646 0.000000
-0.000194 0.000600 0.000000
-0.000190 0.000600 0.000000
-0.000186 0.000601 0.000000
-0.000182 0.000601 0.000000
-0.000178 0.000603 0.000000
-0.000174 0.000604 0.000000
-0.000171 0.000606 0.000000
-0.000167 0.000608 0.000000
-0.000164 0.000610 0.000000
-0.000161 0.000613 0.000000
-0.000158 0.000616 0.000000
-0.000155 0.000619 0.000000
-0.000152 0.000622 0.000000
-0.000150 0.000626 0.000000
-0.000149 0.000630 0.000000
-0.000147 0.000634 0.000000
-0.000146 0.000638 0.000000
-0.000145 0.000642 0.000000
-0.000199 0.000600 0.000000
-0.002003 0.000758 0.000000

POLYGONS 1 24
23 0 1 2 3 4 5 6 7 8 9 10 11 12 13 14 15 16 17 18 19 20 21 22
