# vtk DataFile Version 2.0
mfree iwf
ASCII

DATASET POLYDATA
POINTS 23 float
-0.001857 0.002258 0.000000
0.000143 0.002258 0.000000
0.000002 0.000646 0.000000
-0.000048 0.000600 0.000000
-0.000044 0.000600 0.000000
-0.000040 0.000601 0.000000
-0.000036 0.000601 0.000000
-0.000032 0.000603 0.000000
-0.000028 0.000604 0.000000
-0.000024 0.000606 0.000000
-0.000020 0.000608 0.000000
-0.000017 0.000610 0.000000
-0.000014 0.000613 0.000000
-0.000011 0.000616 0.000000
-0.000008 0.000619 0.000000
-0.000006 0.000622 0.000000
-0.000004 0.000626 0.000000
-0.000002 0.000630 0.000000
-0.000000 0.000634 0.000000
0.000001 0.000638 0.000000
0.000002 0.000642 0.000000
-0.000052 0.000600 0.000000
-0.001857 0.000758 0.000000

POLYGONS 1 24
23 0 1 2 3 4 5 6 7 8 9 10 11 12 13 14 15 16 17 18 19 20 21 22
