# vtk DataFile Version 2.0
mfree iwf
ASCII

DATASET POLYDATA
POINTS 23 float
-0.001957 0.002258 0.000000
0.000043 0.002258 0.000000
-0.000098 0.000646 0.000000
-0.000148 0.000600 0.000000
-0.000144 0.000600 0.000000
-0.000140 0.000601 0.000000
-0.000136 0.000601 0.000000
-0.000132 0.000603 0.000000
-0.000128 0.000604 0.000000
-0.000124 0.000606 0.000000
-0.000120 0.000608 0.000000
-0.000117 0.000610 0.000000
-0.000114 0.000613 0.000000
-0.000111 0.000616 0.000000
-0.000108 0.000619 0.000000
-0.000106 0.000622 0.000000
-0.000104 0.000626 0.000000
-0.000102 0.000630 0.000000
-0.000100 0.000634 0.000000
-0.000099 0.000638 0.000000
-0.000098 0.000642 0.000000
-0.000152 0.000600 0.000000
-0.001957 0.000758 0.000000

POLYGONS 1 24
23 0 1 2 3 4 5 6 7 8 9 10 11 12 13 14 15 16 17 18 19 20 21 22
