# vtk DataFile Version 2.0
mfree iwf
ASCII

DATASET POLYDATA
POINTS 23 float
-0.002010 0.002258 0.000000
-0.000010 0.002258 0.000000
-0.000151 0.000646 0.000000
-0.000201 0.000600 0.000000
-0.000197 0.000600 0.000000
-0.000193 0.000601 0.000000
-0.000189 0.000601 0.000000
-0.000185 0.000603 0.000000
-0.000181 0.000604 0.000000
-0.000177 0.000606 0.000000
-0.000174 0.000608 0.000000
-0.000170 0.000610 0.000000
-0.000167 0.000613 0.000000
-0.000164 0.000616 0.000000
-0.000162 0.000619 0.000000
-0.000159 0.000622 0.000000
-0.000157 0.000626 0.000000
-0.000155 0.000630 0.000000
-0.000154 0.000634 0.000000
-0.000152 0.000638 0.000000
-0.000152 0.000642 0.000000
-0.000205 0.000600 0.000000
-0.002010 0.000758 0.000000

POLYGONS 1 24
23 0 1 2 3 4 5 6 7 8 9 10 11 12 13 14 15 16 17 18 19 20 21 22
