# vtk DataFile Version 2.0
mfree iwf
ASCII

DATASET POLYDATA
POINTS 23 float
-0.001943 0.002258 0.000000
0.000057 0.002258 0.000000
-0.000084 0.000646 0.000000
-0.000134 0.000600 0.000000
-0.000130 0.000600 0.000000
-0.000126 0.000601 0.000000
-0.000122 0.000601 0.000000
-0.000118 0.000603 0.000000
-0.000114 0.000604 0.000000
-0.000111 0.000606 0.000000
-0.000107 0.000608 0.000000
-0.000104 0.000610 0.000000
-0.000101 0.000613 0.000000
-0.000098 0.000616 0.000000
-0.000095 0.000619 0.000000
-0.000092 0.000622 0.000000
-0.000090 0.000626 0.000000
-0.000089 0.000630 0.000000
-0.000087 0.000634 0.000000
-0.000086 0.000638 0.000000
-0.000085 0.000642 0.000000
-0.000139 0.000600 0.000000
-0.001943 0.000758 0.000000

POLYGONS 1 24
23 0 1 2 3 4 5 6 7 8 9 10 11 12 13 14 15 16 17 18 19 20 21 22
