# vtk DataFile Version 2.0
mfree iwf
ASCII

DATASET POLYDATA
POINTS 23 float
-0.001950 0.002258 0.000000
0.000050 0.002258 0.000000
-0.000091 0.000646 0.000000
-0.000141 0.000600 0.000000
-0.000137 0.000600 0.000000
-0.000133 0.000601 0.000000
-0.000129 0.000601 0.000000
-0.000125 0.000603 0.000000
-0.000121 0.000604 0.000000
-0.000117 0.000606 0.000000
-0.000114 0.000608 0.000000
-0.000110 0.000610 0.000000
-0.000107 0.000613 0.000000
-0.000104 0.000616 0.000000
-0.000102 0.000619 0.000000
-0.000099 0.000622 0.000000
-0.000097 0.000626 0.000000
-0.000095 0.000630 0.000000
-0.000094 0.000634 0.000000
-0.000092 0.000638 0.000000
-0.000092 0.000642 0.000000
-0.000145 0.000600 0.000000
-0.001950 0.000758 0.000000

POLYGONS 1 24
23 0 1 2 3 4 5 6 7 8 9 10 11 12 13 14 15 16 17 18 19 20 21 22
