# vtk DataFile Version 2.0
mfree iwf
ASCII

DATASET POLYDATA
POINTS 23 float
-0.001870 0.002258 0.000000
0.000130 0.002258 0.000000
-0.000011 0.000646 0.000000
-0.000061 0.000600 0.000000
-0.000057 0.000600 0.000000
-0.000053 0.000601 0.000000
-0.000049 0.000601 0.000000
-0.000045 0.000603 0.000000
-0.000041 0.000604 0.000000
-0.000037 0.000606 0.000000
-0.000034 0.000608 0.000000
-0.000030 0.000610 0.000000
-0.000027 0.000613 0.000000
-0.000024 0.000616 0.000000
-0.000022 0.000619 0.000000
-0.000019 0.000622 0.000000
-0.000017 0.000626 0.000000
-0.000015 0.000630 0.000000
-0.000014 0.000634 0.000000
-0.000012 0.000638 0.000000
-0.000012 0.000642 0.000000
-0.000065 0.000600 0.000000
-0.001870 0.000758 0.000000

POLYGONS 1 24
23 0 1 2 3 4 5 6 7 8 9 10 11 12 13 14 15 16 17 18 19 20 21 22
