# vtk DataFile Version 2.0
mfree iwf
ASCII

DATASET POLYDATA
POINTS 23 float
-0.001903 0.002258 0.000000
0.000097 0.002258 0.000000
-0.000044 0.000646 0.000000
-0.000094 0.000600 0.000000
-0.000090 0.000600 0.000000
-0.000086 0.000601 0.000000
-0.000082 0.000601 0.000000
-0.000078 0.000603 0.000000
-0.000074 0.000604 0.000000
-0.000071 0.000606 0.000000
-0.000067 0.000608 0.000000
-0.000064 0.000610 0.000000
-0.000061 0.000613 0.000000
-0.000058 0.000616 0.000000
-0.000055 0.000619 0.000000
-0.000052 0.000622 0.000000
-0.000050 0.000626 0.000000
-0.000049 0.000630 0.000000
-0.000047 0.000634 0.000000
-0.000046 0.000638 0.000000
-0.000045 0.000642 0.000000
-0.000099 0.000600 0.000000
-0.001903 0.000758 0.000000

POLYGONS 1 24
23 0 1 2 3 4 5 6 7 8 9 10 11 12 13 14 15 16 17 18 19 20 21 22
